<svg xmlns="http://www.w3.org/2000/svg" width="128" height="128" fill="none" viewBox="0 0 128 128">
  <rect width="128" height="128" fill="#D9D9D9" rx="13"/>
  <rect width="128" height="120" fill="#fff" rx="13"/>
  <path stroke="#000" stroke-linecap="round" stroke-linejoin="round" stroke-width="5" d="M64.88 24h-1.76a8 8 0 0 0-8 8v.72a8 8 0 0 1-4 6.92l-1.72 1a8 8 0 0 1-8 0l-.6-.32a8 8 0 0 0-10.92 2.92L29 44.76a8 8 0 0 0 2.92 10.92l.6.4a8 8 0 0 1 4 6.88V65a8 8 0 0 1-4 6.96l-.6.36A8 8 0 0 0 29 83.24l.88 1.52a8 8 0 0 0 10.92 2.92l.6-.32a8 8 0 0 1 8 0l1.72 1a8.001 8.001 0 0 1 4 6.92V96a8 8 0 0 0 8 8h1.76a8.001 8.001 0 0 0 8-8v-.72a8 8 0 0 1 4-6.92l1.72-1a8 8 0 0 1 8 0l.6.32a8 8 0 0 0 10.92-2.92L99 83.2a8.001 8.001 0 0 0-2.92-10.92l-.6-.32a8 8 0 0 1-4-6.96v-2a8 8 0 0 1 4-6.96l.6-.36A8 8 0 0 0 99 44.76l-.88-1.52a8 8 0 0 0-10.92-2.92l-.6.32a8 8 0 0 1-8 0l-1.72-1a8.001 8.001 0 0 1-4-6.92V32a8 8 0 0 0-8-8Z"/>
  <path stroke="#000" stroke-linecap="round" stroke-linejoin="round" stroke-width="5" d="M64 76c6.627 0 12-5.373 12-12s-5.373-12-12-12-12 5.373-12 12 5.373 12 12 12Z"/>
</svg>
